<?xml version="1.0" standalone="no"?>
<!DOCTYPE svg PUBLIC "-//W3C//DTD SVG 20010904//EN"
 "http://www.w3.org/TR/2001/REC-SVG-20010904/DTD/svg10.dtd">
<svg version="1.0" xmlns="http://www.w3.org/2000/svg"
 width="16.000000pt" height="16.000000pt" viewBox="0 0 16.000000 16.000000"
 preserveAspectRatio="xMidYMid meet">
<metadata>
Created by potrace 1.11, written by Peter Selinger 2001-2013
</metadata>
<g transform="translate(0.000000,16.000000) scale(0.000792,-0.000792)"
fill="#000000" stroke="none">
<path d="M19925 19999 c-22 -4 -2117 -8 -4655 -9 -4300 0 -4836 -3 -4858 -25
-17 -16 -74 -251 -75 -306 -2 -104 38 -142 166 -159 34 -4 2112 -11 4617 -15
2505 -4 4557 -9 4560 -12 3 -2 9 -754 13 -1670 l8 -1665 -23 -25 c-13 -14 -35
-31 -50 -39 -23 -12 -1412 -14 -9452 -14 -6940 -1 -9436 2 -9467 10 -23 6 -58
28 -80 48 -68 65 -70 87 -60 591 5 240 5 636 2 881 -4 245 -4 481 0 525 15
158 11 288 -11 359 -30 96 -48 112 -149 132 -101 20 -251 15 -323 -11 -56 -20
-52 -2 -70 -335 -15 -253 -17 -1790 -4 -2322 l8 -318 37 -22 36 -23 9915 -3
c5453 -1 9968 2 10032 6 94 7 122 12 139 28 l22 19 -8 2140 c-6 2064 -7 2141
-25 2170 -40 66 -128 89 -245 64z"/>
<path d="M15995 18931 c-88 -23 -143 -82 -176 -191 l-20 -66 22 -68 c42 -138
99 -184 209 -171 154 18 253 64 284 130 25 52 18 173 -12 231 -27 53 -90 107
-142 123 -55 16 -128 22 -165 12z"/>
<path d="M2580 18633 c-46 -16 -100 -50 -137 -86 l-43 -41 0 -651 c0 -357 4
-655 8 -662 4 -7 37 -19 72 -27 125 -29 274 -36 648 -29 449 7 436 4 438 123
0 36 4 95 9 132 9 79 -5 110 -57 126 -18 6 -161 16 -318 22 -157 7 -288 15
-291 18 -4 4 -12 196 -18 427 -16 564 -12 520 -52 561 -49 51 -142 94 -198 93
-25 0 -53 -3 -61 -6z m288 -1030 c12 -24 17 -43 12 -43 -12 0 -40 53 -40 76 0
21 1 20 28 -33z"/>
<path d="M10789 18606 c-48 -13 -91 -26 -97 -30 -16 -10 -78 -123 -108 -197
-14 -35 -52 -167 -84 -294 -55 -217 -110 -388 -130 -400 -14 -8 -74 118 -103
215 -15 47 -40 147 -57 223 -37 163 -68 256 -110 334 -25 48 -41 64 -93 95
-156 91 -268 88 -387 -11 l-34 -29 68 -229 c143 -479 238 -743 350 -978 l63
-131 54 -13 c75 -19 293 -26 371 -12 139 24 126 12 211 189 153 317 273 669
362 1061 l26 114 -27 38 c-31 46 -95 79 -150 78 -21 0 -78 -11 -125 -23z"/>
<path d="M6021 18599 c-222 -47 -356 -155 -411 -334 -7 -22 -25 -53 -40 -70
-121 -133 -102 -231 52 -260 34 -7 37 -10 42 -49 3 -22 7 -122 10 -221 8 -330
59 -459 204 -522 56 -25 213 -22 330 6 91 23 93 24 131 74 80 107 89 150 41
191 -28 23 -51 32 -132 50 -20 5 -33 20 -55 64 -27 55 -28 63 -30 224 l-1 167
56 11 c79 15 136 37 157 60 26 28 15 87 -31 164 -33 57 -42 66 -81 76 -48 14
-102 67 -104 103 -1 12 -1 67 1 123 1 77 -2 108 -14 132 -9 18 -20 32 -24 31
-4 0 -49 -9 -101 -20z"/>
<path d="M7197 18556 c-64 -23 -113 -65 -178 -150 -76 -99 -155 -183 -191
-202 -49 -26 -76 -106 -58 -173 13 -48 54 -81 112 -88 38 -6 42 -10 67 -62 25
-55 26 -60 26 -266 0 -249 3 -260 110 -374 51 -53 86 -80 143 -109 70 -34 83
-37 161 -37 72 0 95 4 141 26 107 50 180 133 180 204 0 53 -20 76 -132 147
-90 59 -158 129 -152 156 2 9 8 70 13 136 12 156 20 168 116 173 104 5 112 8
125 49 14 41 6 174 -11 207 -16 28 -71 47 -142 47 -91 0 -102 11 -93 91 4 35
10 87 13 115 6 63 -7 91 -52 110 -43 18 -148 17 -198 0z"/>
<path d="M13675 18243 c-16 -8 -50 -34 -75 -58 -25 -23 -59 -51 -76 -63 l-31
-21 -32 49 c-61 93 -163 120 -324 84 -140 -32 -152 -47 -143 -178 3 -50 7
-253 8 -451 3 -402 6 -418 69 -451 28 -14 49 -15 124 -10 49 4 121 13 159 19
l70 12 25 50 c24 47 26 59 28 229 3 231 11 258 96 320 33 26 68 46 76 46 58 0
168 86 193 149 16 41 13 131 -6 188 -31 94 -88 125 -161 86z"/>
<path d="M17538 18247 c-43 -17 -125 -63 -133 -77 -3 -6 -50 -10 -103 -10
l-96 0 -37 36 c-45 44 -96 52 -204 32 l-70 -13 -30 -85 -30 -85 0 -400 c0
-434 0 -437 56 -478 65 -47 300 -46 368 2 59 43 66 69 62 231 -9 348 -8 370
20 430 14 30 35 66 46 80 l21 24 34 -18 c72 -39 66 -11 88 -387 15 -235 25
-346 33 -351 33 -22 129 -42 198 -41 60 0 89 6 131 25 l55 25 28 202 c22 165
26 225 23 338 -5 154 -23 223 -84 326 -19 32 -34 67 -34 77 0 21 -54 67 -120
101 -54 29 -165 36 -222 16z"/>
<path d="M4450 18243 c-80 -13 -221 -58 -272 -85 -157 -83 -238 -237 -238
-447 1 -209 76 -375 210 -461 46 -30 171 -82 280 -117 121 -39 288 -34 435 12
44 13 92 25 106 25 15 0 37 9 50 19 22 17 24 27 23 98 0 43 -6 89 -13 102 -12
21 -17 23 -59 15 -26 -4 -137 -8 -247 -8 -181 -1 -204 1 -240 19 -66 33 -59
101 13 132 30 13 82 16 277 17 219 1 244 3 280 21 38 19 41 23 54 90 17 85 6
185 -30 260 -50 109 -256 273 -377 301 -53 13 -195 17 -252 7z m186 -238 c50
-21 68 -68 62 -167 -3 -43 -7 -80 -9 -81 -2 -2 -64 -2 -136 1 l-133 4 0 69 c0
37 5 80 11 96 13 34 47 72 74 83 32 14 93 11 131 -5z"/>
<path d="M8595 18238 c-139 -25 -330 -125 -393 -206 -77 -96 -109 -223 -98
-383 14 -208 72 -332 190 -407 40 -25 184 -80 291 -112 136 -39 281 -34 415
17 97 36 179 124 166 178 -11 43 -137 75 -295 75 -46 0 -101 5 -123 12 -45 13
-122 77 -143 119 l-15 28 187 3 c104 2 235 -1 293 -6 129 -11 167 1 195 60 22
47 26 197 7 261 -18 61 -70 131 -132 181 -30 24 -87 70 -127 103 -59 48 -84
62 -135 74 -69 16 -205 18 -283 3z m193 -238 c62 -38 91 -144 53 -191 -18 -22
-26 -24 -119 -24 -93 0 -102 2 -127 25 -24 22 -26 31 -22 73 5 57 30 95 78
119 45 24 96 23 137 -2z"/>
<path d="M11732 18220 c-141 -34 -224 -73 -281 -136 -87 -93 -121 -206 -121
-401 0 -91 5 -136 19 -182 52 -167 208 -302 416 -363 68 -20 102 -23 230 -23
132 1 162 4 249 28 197 54 218 73 196 177 -7 34 -21 71 -30 83 -17 21 -18 21
-64 3 -60 -23 -298 -23 -374 -1 -50 15 -142 86 -142 110 0 26 86 37 330 44
289 9 323 17 334 79 9 57 7 182 -5 231 -29 127 -125 245 -255 313 -144 76
-293 87 -502 38z m293 -220 c46 -28 69 -90 63 -169 -2 -34 -7 -64 -11 -67 -10
-11 -56 -8 -147 10 -107 21 -125 37 -125 109 1 66 20 113 54 133 35 20 121 12
166 -16z"/>
<path d="M14610 18229 c-130 -24 -200 -57 -265 -124 -54 -56 -140 -194 -158
-253 -31 -106 -1 -356 58 -472 53 -104 111 -149 261 -201 186 -65 214 -71 329
-71 114 -1 175 9 331 58 92 29 104 43 104 123 0 59 -16 77 -53 60 -22 -10 -31
-8 -62 11 -56 34 -98 40 -220 27 l-112 -11 -61 44 c-83 57 -96 107 -35 131 17
7 121 12 258 13 205 1 234 4 268 21 l37 19 0 176 c0 177 0 177 -30 237 -95
191 -337 269 -650 212z m240 -214 c35 -18 90 -108 90 -148 0 -32 -14 -62 -43
-94 -18 -21 -30 -23 -114 -23 -109 0 -127 11 -138 84 -9 57 7 104 48 143 59
56 102 66 157 38z"/>
<path d="M15938 18220 c-76 -41 -103 -117 -94 -262 3 -51 8 -232 12 -403 6
-308 6 -310 30 -348 53 -82 127 -96 275 -52 46 13 92 25 101 25 12 0 21 22 38
91 32 139 42 296 30 509 -5 102 -10 235 -10 295 0 61 -4 117 -10 125 -10 16
-84 27 -235 35 -87 5 -105 3 -137 -15z"/>
<path d="M5623 12833 l3 -1868 27 -125 c139 -624 527 -1117 1092 -1386 195
-93 445 -162 648 -180 l77 -7 0 -2233 0 -2234 620 0 620 0 0 2234 0 2233 76 6
c42 4 132 18 200 32 815 165 1437 822 1558 1646 14 94 16 329 16 1928 l0 1821
-492 -2 -493 -3 -3 -1732 -2 -1733 -490 0 -490 0 -2 1733 -3 1732 -492 3 -493
2 -2 -1732 -3 -1733 -492 -3 -493 -2 -2 1732 -3 1733 -493 3 -492 2 3 -1867z"/>
<path d="M14343 14690 c-794 -54 -1586 -510 -2016 -1160 -92 -139 -160 -277
-207 -419 -74 -221 -70 -76 -70 -2328 l0 -2023 618 -2 617 -3 3 -1977 2 -1978
615 0 615 0 0 4950 0 4950 -32 -1 c-18 -1 -83 -5 -145 -9z"/>
<path d="M14530 2600 l0 -1420 205 0 205 0 0 1420 0 1420 -205 0 -205 0 0
-1420z"/>
<path d="M2183 3894 c-210 -33 -369 -110 -509 -249 -143 -143 -193 -256 -201
-455 -6 -153 9 -227 70 -344 103 -198 327 -349 695 -467 367 -118 480 -163
569 -228 155 -112 176 -359 43 -505 -87 -94 -240 -145 -435 -145 -169 0 -307
37 -418 113 -112 76 -172 182 -184 322 l-6 74 -215 0 -215 0 8 -82 c13 -159
54 -271 140 -393 145 -205 413 -346 732 -386 117 -15 326 -7 438 16 325 67
555 245 637 495 30 90 37 305 13 405 -36 154 -127 290 -266 395 -146 109 -288
170 -720 305 -234 73 -383 169 -435 280 -32 68 -33 180 -2 262 39 105 147 189
288 224 83 21 309 18 385 -5 214 -65 335 -220 335 -428 l0 -58 215 0 215 0 0
54 c0 246 -145 505 -364 650 -212 141 -513 196 -813 150z"/>
<path d="M7848 3900 c-79 -24 -132 -85 -150 -175 -20 -100 20 -195 100 -243
41 -24 57 -27 132 -27 72 0 92 4 127 24 85 49 125 148 103 255 -10 47 -20 67
-58 106 -30 31 -61 52 -87 59 -46 12 -127 13 -167 1z"/>
<path d="M4458 3230 c-128 -23 -233 -68 -328 -139 l-55 -42 -3 43 c-1 24 -5
58 -7 76 l-6 32 -189 0 -190 0 0 -1385 0 -1385 205 0 205 0 0 435 c0 239 2
435 4 435 2 0 37 -20 77 -45 122 -75 272 -115 436 -115 308 0 544 156 683 453
79 168 110 337 110 597 0 271 -33 446 -115 615 -105 215 -267 356 -470 411
-69 18 -286 27 -357 14z m167 -366 c163 -42 278 -175 337 -389 19 -69 22 -106
22 -275 0 -222 -16 -316 -79 -446 -45 -94 -147 -192 -232 -224 -199 -75 -441
-1 -553 167 l-30 46 0 448 0 447 43 58 c47 64 87 98 157 134 95 49 227 63 335
34z"/>
<path d="M6390 3226 c-178 -38 -298 -104 -435 -241 -138 -138 -206 -261 -262
-474 -35 -132 -44 -436 -19 -590 85 -504 462 -805 976 -778 300 16 532 138
684 360 47 68 57 52 -108 180 l-110 85 -80 -81 c-126 -128 -260 -187 -426
-187 -144 0 -268 52 -369 153 -90 90 -142 200 -166 355 l-7 42 663 0 662 0 -6
183 c-14 396 -85 604 -267 788 -73 74 -100 93 -180 132 -52 25 -124 53 -160
62 -89 22 -306 29 -390 11z m258 -356 c110 -26 207 -101 257 -200 29 -56 65
-186 65 -232 l0 -28 -440 0 c-315 0 -440 3 -440 11 0 29 35 141 61 196 35 73
121 171 184 207 84 50 213 69 313 46z"/>
<path d="M9151 3225 c-278 -52 -497 -232 -556 -456 -18 -68 -19 -208 -1 -274
45 -170 178 -292 413 -381 37 -14 164 -50 280 -79 355 -89 432 -142 433 -295
0 -101 -71 -178 -199 -217 -87 -27 -276 -25 -361 5 -131 45 -212 134 -232 255
l-11 67 -205 0 -205 0 6 -80 c22 -281 240 -516 555 -596 255 -65 577 -30 772
83 36 21 96 70 135 108 112 112 159 230 159 400 -1 162 -50 274 -166 380 -112
100 -268 168 -562 241 -288 72 -374 114 -405 197 -35 93 15 199 119 252 168
85 407 48 520 -82 40 -45 52 -75 59 -143 l6 -55 209 -3 209 -2 -6 84 c-22 286
-212 495 -522 577 -105 27 -337 35 -444 14z"/>
<path d="M11140 3226 c-178 -38 -298 -104 -435 -241 -138 -138 -206 -261 -262
-474 -35 -132 -44 -436 -19 -590 85 -504 462 -805 976 -778 300 16 532 138
684 360 47 68 57 52 -108 180 l-110 85 -80 -81 c-157 -160 -352 -220 -555
-172 -216 51 -365 231 -406 493 l-7 42 663 0 662 0 -6 183 c-14 396 -85 604
-267 788 -73 74 -100 93 -180 132 -52 25 -124 53 -160 62 -89 22 -306 29 -390
11z m258 -356 c110 -26 207 -101 257 -200 29 -56 65 -186 65 -232 l0 -28 -440
0 c-315 0 -440 3 -440 11 0 29 35 141 61 196 35 73 121 171 184 207 84 50 213
69 313 46z"/>
<path d="M13218 3230 c-128 -23 -233 -68 -328 -139 l-55 -42 -3 43 c-1 24 -5
58 -7 76 l-6 32 -189 0 -190 0 0 -1385 0 -1385 205 0 205 0 0 435 c0 239 2
435 4 435 2 0 37 -20 77 -45 122 -75 272 -115 436 -115 308 0 544 156 683 453
79 168 110 337 110 597 0 271 -33 446 -115 615 -105 215 -267 356 -470 411
-69 18 -286 27 -357 14z m167 -366 c163 -42 279 -176 337 -389 19 -69 22 -106
22 -275 0 -222 -16 -316 -79 -446 -45 -94 -147 -192 -232 -224 -199 -75 -441
-1 -553 167 l-30 46 0 448 0 447 43 58 c47 64 87 98 157 134 95 49 227 63 335
34z"/>
<path d="M16035 3230 c-95 -14 -247 -68 -327 -115 -192 -113 -318 -297 -318
-465 l0 -60 204 0 203 0 5 51 c6 63 44 119 111 166 122 83 343 97 477 28 105
-54 151 -138 158 -291 l5 -102 -254 -5 c-209 -4 -272 -9 -353 -27 -263 -57
-437 -172 -531 -351 -46 -88 -65 -173 -65 -298 0 -184 45 -297 170 -421 86
-86 173 -137 295 -172 105 -30 325 -32 425 -5 86 23 203 79 267 128 29 21 54
39 56 39 3 0 8 -17 12 -37 3 -20 13 -54 22 -75 l15 -38 209 0 209 0 0 39 c0
21 -7 58 -16 82 -44 123 -46 159 -53 794 -6 534 -9 617 -24 669 -51 173 -168
312 -327 389 -52 25 -129 53 -170 62 -87 20 -314 28 -405 15z m515 -1288 l0
-179 -32 -47 c-17 -27 -54 -66 -82 -88 -232 -183 -551 -165 -652 38 -29 58
-27 204 3 260 44 83 133 138 273 168 101 21 119 23 318 24 l172 2 0 -178z"/>
<path d="M18201 3229 c-125 -22 -257 -83 -346 -161 -24 -21 -46 -38 -49 -38
-3 0 -6 37 -8 83 l-3 82 -197 3 -198 2 0 -1010 0 -1010 205 0 205 0 0 706 0
705 27 47 c40 68 134 157 201 191 145 73 352 65 454 -19 46 -38 84 -116 98
-200 6 -40 10 -329 10 -747 l0 -683 205 0 206 0 -3 758 c-4 746 -4 758 -26
837 -66 238 -203 383 -417 441 -72 19 -287 27 -364 13z"/>
<path d="M7720 2190 l0 -1010 205 0 205 0 0 1010 0 1010 -205 0 -205 0 0
-1010z"/>
</g>
</svg>
